<svg xmlns="http://www.w3.org/2000/svg" width="50" height="50" viewBox="0 0 47.532 47.5">

  <path fill="#e31e25" fill-rule="evenodd" d="M481.656,15976.5a2.348,2.348,0,0,1,2.6-1.7h22.6a1.3,1.3,0,0,1,1.143.5q4.053,4.05,8.136,8.1a1.349,1.349,0,0,1,.445,1.1c-0.021,1.6,0,3.2-.014,4.8a0.751,0.751,0,0,0,.342.7,11.921,11.921,0,0,1,5.915,8.1,1.434,1.434,0,0,1,.067.4,0.6,0.6,0,0,1-.535.7,0.64,0.64,0,0,1-.81-0.5c-0.154-.5-0.257-1.1-0.432-1.6a10.848,10.848,0,0,0-11.192-7.3,10.718,10.718,0,0,0-9.8,8.8,10.882,10.882,0,1,0,21.546,2.9,0.787,0.787,0,0,1,.74-0.9,0.813,0.813,0,0,1,.648,1,12.46,12.46,0,0,1-1.878,5.6c0.569,0.5,1.123,1.1,1.7,1.7,0.525-.3.688-0.2,1.178,0.3,1.379,1.3,2.762,2.7,4.133,4.1a3.253,3.253,0,0,1,.81,3.5,3.155,3.155,0,0,1-2.694,2.1,2.818,2.818,0,0,1-2.609-.8c-1.508-1.5-2.984-3-4.473-4.4a0.8,0.8,0,0,1-.072-1.1c-0.57-.6-1.115-1.1-1.668-1.7-0.011,0-.041,0-0.068.1a1.206,1.206,0,0,0-.858,1.4c0.054,2.4-.016,4.9.035,7.3a2.351,2.351,0,0,1-1.7,2.6H483.327a2.445,2.445,0,0,1-1.671-1.7v-35.3a0.75,0.75,0,0,1,.939-0.4,0.808,0.808,0,0,1,.457.9c0,11.4,0,22.7,0,34,0,0.9.172,1.1,1.116,1.1H514.1c0.9,0,1.074-.2,1.074-1.1v-7.7c-0.779.2-1.519,0.4-2.274,0.6a14.987,14.987,0,0,1-2.12.1c-5.043.1-10.086,0.1-15.129,0.1a0.522,0.522,0,0,1-.37-0.1,0.568,0.568,0,0,1-.618-0.6,0.668,0.668,0,0,1,.489-0.7h9.75c-0.823-.7-1.63-1.3-2.454-1.9a0.769,0.769,0,0,0-.479-0.1h-6.589a0.741,0.741,0,0,1-.723-0.7,0.694,0.694,0,0,1,.764-0.7h5.634c-0.228-.4-0.406-0.6-0.579-0.9a11.429,11.429,0,0,1-1.629-3.9,0.451,0.451,0,0,0-.527-0.4H495.3a0.767,0.767,0,0,1-.648-0.7,0.684,0.684,0,0,1,.7-0.7h3.175v-2H495.7c-0.712,0-1.046-.2-1.05-0.7s0.336-.7,1.038-0.7h3.1a12.8,12.8,0,0,1,2.282-5h-5.368a0.843,0.843,0,0,1-.5,0,1.4,1.4,0,0,1-.517-0.6,1.221,1.221,0,0,1,.417-0.7,1.06,1.06,0,0,1,.582-0.1h6.218a1.082,1.082,0,0,0,.733-0.3c0.755-.5,1.485-1.1,2.279-1.7h-9.762a0.636,0.636,0,0,1-.5-0.7,0.575,0.575,0,0,1,.606-0.6,0.245,0.245,0,0,1,.232-0.1H511a12.724,12.724,0,0,1,3.865.7c0.084,0,.172.1,0.285,0.1v-4.3h-6.34a2.048,2.048,0,0,1-2.278-2.2c0-2,0-3.9,0-5.8v-0.6H484.1c-0.865,0-1.05.2-1.05,1.1,0,1.7,0,3.5,0,5.2a0.768,0.768,0,0,1-.482.9,0.714,0.714,0,0,1-.916-0.4v-6.5Zm41.659,34c-0.875.9-1.747,1.7-2.584,2.6,1.333,1.3,2.649,2.8,4.042,4.1a1.887,1.887,0,0,0,2.594-2.7C526.051,16013.1,524.671,16011.8,523.315,16010.5Zm-15.39-33.2v0.4q0,2.4,0,4.8a0.743,0.743,0,0,0,.911.9h5.169C511.988,15981.4,509.964,15979.4,507.925,15977.3Zm12.433,31.3c-0.54.5-1.069,1-1.546,1.5,0.411,0.4.886,0.9,1.326,1.4,0.532-.5,1.062-1.1,1.58-1.6C521.258,16009.5,520.77,16009,520.358,16008.6Zm-27.756-17.8c0,0.4.012,0.9,0,1.4a1.559,1.559,0,0,1-1.553,1.6h-3.057a1.489,1.489,0,0,1-1.555-1.5c-0.036-1.1-.037-2.1,0-3.2a1.628,1.628,0,0,1,1.565-1.5h3.011a1.637,1.637,0,0,1,1.589,1.7C492.61,15989.8,492.6,15990.3,492.6,15990.8Zm-1.393-.1c0-.4-0.01-0.9,0-1.3a0.315,0.315,0,0,0-.37-0.4h-2.637a0.333,0.333,0,0,0-.391.4c0.009,0.9.008,1.8,0,2.6,0,0.3.081,0.4,0.371,0.4h2.637a0.318,0.318,0,0,0,.39-0.4C491.2,15991.6,491.209,15991.1,491.209,15990.7Zm1.394,19.8c0,0.5.008,1,0,1.4a1.627,1.627,0,0,1-1.557,1.7h-3.057a1.631,1.631,0,0,1-1.553-1.6c-0.036-1-.034-2,0-3.1a1.512,1.512,0,0,1,1.619-1.5h2.918a1.574,1.574,0,0,1,1.633,1.6C492.61,16009.5,492.6,16010,492.6,16010.5Zm-4.786-.1c0,0.5.011,0.9,0,1.4a0.337,0.337,0,0,0,.412.4h2.59a0.327,0.327,0,0,0,.4-0.4c-0.013-.9-0.013-1.8,0-2.6a0.338,0.338,0,0,0-.41-0.4h-2.591a0.325,0.325,0,0,0-.4.4C487.826,16009.6,487.817,16010,487.817,16010.4Zm1.666-6.8h-1.439a1.512,1.512,0,0,1-1.61-1.5c-0.038-1.1-.038-2.1,0-3.2a1.5,1.5,0,0,1,1.575-1.5h3.017a1.547,1.547,0,0,1,1.572,1.6q0.019,1.5,0,3a1.56,1.56,0,0,1-1.585,1.6h-1.531Zm-1.666-1.4h3.132a0.414,0.414,0,0,0,.248-0.3c0.019-.9.022-1.8,0-2.8a0.452,0.452,0,0,0-.312-0.3h-2.735a0.323,0.323,0,0,0-.331.4c0.005,0.5,0,.9,0,1.4v1.6Zm32.1-1.6a9.13,9.13,0,0,1-16.19,5.7,0.789,0.789,0,0,1-.054-1.2c0.348-.3.741-0.2,1.142,0.3a7.347,7.347,0,0,0,7.807,2.6,7.175,7.175,0,0,0,5.729-6,7.673,7.673,0,1,0-15.223-1.3,20.782,20.782,0,0,0,.3,2.1,1.129,1.129,0,0,1-.077.7,0.572,0.572,0,0,1-.615.3,1.141,1.141,0,0,1-.589-0.5,8.619,8.619,0,0,1-.124-5,9.07,9.07,0,0,1,17.75.9C519.856,15999.6,519.874,16000.1,519.919,16000.6Zm-9.983-1.2a27.85,27.85,0,0,0,2.116-2,2.2,2.2,0,1,1,3.1,3.1c-1.129,1.1-2.262,2.3-3.4,3.4a2.209,2.209,0,0,1-3.38.1c-0.553-.6-1.11-1.1-1.659-1.7a2.113,2.113,0,0,1-.121-3.1,2.135,2.135,0,0,1,3.116,0A0.618,0.618,0,0,0,509.936,15999.4Zm4.531-.4c0.013-.6-0.328-1-0.748-0.9a1.563,1.563,0,0,0-.673.3c-0.761.8-1.492,1.6-2.236,2.3-0.636.7-.891,0.7-1.531,0a2.539,2.539,0,0,1-.534-0.5,0.846,0.846,0,0,0-1.15,0,0.713,0.713,0,0,0,.071,1.1q0.885,0.9,1.792,1.8a0.846,0.846,0,0,0,1.22-.1c1.17-1.1,2.334-2.3,3.49-3.5A4.107,4.107,0,0,0,514.467,15999Z" transform="translate(-481.656 -15974.8)"/>
</svg>
