<svg xmlns="http://www.w3.org/2000/svg" width="43" height="43" viewBox="0 0 43 43">
  <path fill="#e31e25" fill-rule="evenodd" d="M1212.93,15980.9c-0.11,1-.2,1.9-0.34,2.9a34.22,34.22,0,0,1-3.44,11.3,20.536,20.536,0,0,1-3.14,4.2c-1.45,1.4-2.91,2.9-4.36,4.4a0.741,0.741,0,0,0-.28.5c-0.27,2.4-.52,4.8-0.81,7.2a1.525,1.525,0,0,1-.43.9c-2.25,2.3-4.52,4.5-6.78,6.8a0.868,0.868,0,0,1-1.62-.5c-0.23-1.6-.46-3.3-0.71-4.9a1,1,0,0,0-.22-0.4c-0.4-.4-0.82-0.9-1.26-1.3-0.14.2-.22,0.3-0.28,0.4-0.61,1-1.21,2-1.82,3a0.887,0.887,0,0,1-1.49.2l-9.3-9.3a0.869,0.869,0,0,1,.19-1.5c1.11-.7,2.23-1.3,3.39-2-0.49-.5-0.96-1-1.44-1.5a0.277,0.277,0,0,0-.27-0.1l-4.61-.6a0.789,0.789,0,0,0-.46-0.1,0.848,0.848,0,0,1-.48-1.4l0.24-.3c2.22-2.2,4.46-4.4,6.67-6.6a1.713,1.713,0,0,1,1.11-.6c2.35-.2,4.7-0.5,7.05-0.7a4.171,4.171,0,0,0,.53-0.3c1.33-1.3,2.67-2.6,3.95-4a21.151,21.151,0,0,1,8.02-5,40.58,40.58,0,0,1,10.34-2.2c0.16,0,.31-0.1.46-0.1h1.59v1.6Zm-19.16,28.3a2.136,2.136,0,0,1,.36-0.4c3.45-3.4,6.88-6.9,10.36-10.3a20.012,20.012,0,0,0,4.74-7.8,0.487,0.487,0,0,0-.07-0.4q-3.585-3.6-7.21-7.2a0.443,0.443,0,0,0-.35-0.1,18.684,18.684,0,0,0-7.5,4.5c-4.35,4.3-8.71,8.7-13.06,13a2.691,2.691,0,0,0-.29.3c3.58,3.6,7.12,7.1,10.63,10.6,0.37-.3.76-0.7,1.22-1.1-0.11-.1-0.25-0.2-0.36-0.3-1.98-2-3.96-4-5.94-5.9a3.792,3.792,0,0,1-.35-0.5,0.807,0.807,0,0,1,.1-1,0.974,0.974,0,0,1,1.04-.1c0.15,0.1.28,0.3,0.41,0.4C1189.58,16005,1191.65,16007,1193.77,16009.2Zm-15.14-3.5c2.66,2.6,5.29,5.3,7.93,7.9,0.54-.9,1.11-1.8,1.65-2.7-2.29-2.3-4.55-4.6-6.83-6.9C1180.47,16004.6,1179.52,16005.2,1178.63,16005.7Zm7.79-13c-1.79.2-3.47,0.4-5.14,0.6a0.867,0.867,0,0,0-.42.3c-1.74,1.7-3.48,3.4-5.22,5.2-0.07.1-.13,0.1-0.21,0.2a0.217,0.217,0,0,0,.19.1c1.21,0.2,2.41.4,3.61,0.5a1.047,1.047,0,0,0,.54-0.2q3.18-3.15,6.35-6.3C1186.19,15993,1186.26,15992.9,1186.42,15992.7Zm13.07,13.2a0.572,0.572,0,0,0-.18.1c-2.18,2.2-4.37,4.4-6.54,6.6a0.613,0.613,0,0,0-.13.5c0.05,0.5.15,1.1,0.23,1.7,0.1,0.6.2,1.3,0.31,2a0.572,0.572,0,0,0,.18-0.1q2.7-2.7,5.39-5.4a1.014,1.014,0,0,0,.18-0.4c0.1-.8.2-1.7,0.29-2.5C1199.31,16007.5,1199.4,16006.7,1199.49,16005.9Zm11.7-24.8a36.108,36.108,0,0,0-7.45,1.2c2.06,2.1,4.12,4.2,6.17,6.2A40.914,40.914,0,0,0,1211.19,15981.1Zm-41.26,40.1a4.838,4.838,0,0,1,.75-0.8c2.66-2.7,5.32-5.3,7.98-8,0.14-.1.28-0.3,0.44-0.4a0.907,0.907,0,0,1,1,.1,0.814,0.814,0,0,1,.13,1c-0.1.2-.23,0.3-0.35,0.5-2.76,2.7-5.52,5.5-8.28,8.2-0.18.2-.38,0.3-0.58,0.5h-1.09v-1.1Zm7.04-11.7a0.841,0.841,0,0,1,.89,1.2,3.792,3.792,0,0,1-.35.5c-1.57,1.5-3.16,3.1-4.74,4.7-0.11.1-.22,0.2-0.34,0.3a0.817,0.817,0,0,1-1.04-.1,0.727,0.727,0,0,1-.1-1,0.966,0.966,0,0,1,.27-0.4q2.4-2.4,4.81-4.8A4.4,4.4,0,0,1,1176.97,16009.5Zm5.81,5.6a4.09,4.09,0,0,1-.39.7c-1.66,1.7-3.33,3.3-5,5a0.908,0.908,0,0,1-1.27.1,0.9,0.9,0,0,1,.09-1.3c1.66-1.7,3.34-3.3,5.01-5a0.917,0.917,0,0,1,.98-0.3A1.078,1.078,0,0,1,1182.78,16015.1Zm14.46-25.1a5,5,0,1,1-5.04,5A4.971,4.971,0,0,1,1197.24,15990Zm0,1.6a3.4,3.4,0,0,0,.01,6.8,3.411,3.411,0,0,0,3.34-3.4A3.374,3.374,0,0,0,1197.24,15991.6Zm-12.95,10.1a0.859,0.859,0,0,1-.84-0.8,0.841,0.841,0,0,1,.8-0.9,0.877,0.877,0,0,1,.85.8A0.836,0.836,0,0,1,1184.29,16001.7Z" transform="translate(-1169.94 -15979.3)"/>
</svg>
