<svg xmlns="http://www.w3.org/2000/svg" width="45.562" height="45.4" viewBox="0 0 45.562 45.4">
  <path fill="#e31e25" fill-rule="evenodd" d="M748.957,15991.5H754a2.285,2.285,0,0,1,2.551,2.5q0,13.35,0,26.7a2.323,2.323,0,0,1-2.584,2.6h-38.9a3.819,3.819,0,0,1-4.064-4.1c0-12.4,0-24.9,0-37.3a3.821,3.821,0,0,1,4.068-4.1h29.838a3.822,3.822,0,0,1,4.049,4.1q0,4.5,0,9v0.6Zm-4.573-4.6h-4.411a2.292,2.292,0,0,1-2.4-2.4c0-1.5,0-3.1,0-4.6v-0.6H715.021a2.326,2.326,0,0,0-2.5,2.5c0,12.5,0,25,0,37.4a2.285,2.285,0,0,0,2.532,2.5h18.8a9.549,9.549,0,0,1-.07-1q0-13.35,0-26.7a2.277,2.277,0,0,1,2.5-2.5h8.11v-4.6Zm-9.091,20.5v13.2c0,0.9.22,1.1,1.091,1.1h17.555c0.87,0,1.091-.2,1.091-1.1v-26.5c0-.9-0.22-1.1-1.092-1.1H736.383c-0.871,0-1.09.2-1.09,1.1v13.3Zm4.772-28.1c0.123,0.2.186,0.3,0.256,0.4q2.6,2.85,5.207,5.7a1.373,1.373,0,0,1,.4,1c-0.018,1.5-.007,3-0.007,4.5v0.5h1.463c0.022,0,.045,0,0.045-0.1,0-3.3.025-6.6-.009-9.9a2.108,2.108,0,0,0-2.129-2C743.585,15979.3,741.877,15979.3,740.065,15979.3Zm3.387,6.1c-1.48-1.6-2.879-3.2-4.356-4.8,0,1.4-.019,2.8.011,4.1a0.7,0.7,0,0,0,.731.7h3.614Zm-18.549-2.7c0.32,0.3.655,0.6,0.958,0.9-3,3-6.019,6-9.05,9.1-0.294-.3-0.626-0.7-0.927-1Q720.375,15987.2,724.9,15982.7Zm-4.772,14.8v-1.5h10.584v1.5H720.131Zm10.586,4.6v1.4H720.133v-1.4h10.584Zm0-3v1.4H720.148v-1.4h10.567Zm-10.584,7.5v-1.5h10.584v1.5H720.131Zm10.585,1.5v1.5H720.149v-1.5h10.567Zm-0.006,4.5H720.147v-1.4H730.71v1.4Zm-9.079-21.9a2.275,2.275,0,1,1,2.24,2.3A2.3,2.3,0,0,1,721.631,15990.7Zm3.03,0a0.87,0.87,0,0,0-.736-0.8,0.849,0.849,0,0,0-.776.8,0.791,0.791,0,0,0,.759.8A0.817,0.817,0,0,0,724.661,15990.7Zm-4.555-6a2.287,2.287,0,0,1-2.318,2.2,2.24,2.24,0,0,1-2.231-2.3,2.293,2.293,0,0,1,2.317-2.2A2.239,2.239,0,0,1,720.106,15984.7Zm-2.274.7a0.731,0.731,0,0,0,.756-0.7,0.788,0.788,0,0,0-.731-0.8,0.754,0.754,0,0,0-.78.8A0.729,0.729,0,0,0,717.832,15985.4Zm18.2-3v1.5H728.5v-1.5h7.531Zm-7.55,4.5v-1.5h7.548v1.5h-7.548Zm7.55,1.6v1.4H728.5v-1.4h7.532Zm-17.459,7.5v1.5h-2.994v-1.5h2.994Zm-2.994,7.5v-1.4h2.977v1.4h-2.977Zm2.99-4.4v1.4h-2.977v-1.4h2.977Zm-0.008,7.5h-2.981v-1.5h2.981v1.5Zm-2.987,3v-1.5h2.994v1.5h-2.994Zm3,1.6v1.4h-2.983v-1.4h2.983Zm26.61-9.1h-6.641a1.571,1.571,0,0,1-1.727-1.8c0-1.3,0-2.7,0-4.1a1.53,1.53,0,0,1,1.714-1.7h13.283a1.536,1.536,0,0,1,1.7,1.7c0,1.4,0,2.8,0,4.1a1.573,1.573,0,0,1-1.738,1.8h-6.594Zm6.775-1.6v-4.5H738.366v4.5h13.588Zm-6.826,7.6h-1.375a0.759,0.759,0,0,1-.866-0.8c-0.01-1-.011-1.9,0-2.9a0.749,0.749,0,0,1,.835-0.8h2.894a0.739,0.739,0,0,1,.818.8c0.011,1,.012,1.9,0,2.9a0.75,0.75,0,0,1-.836.8h-1.471Zm0.769-3h-1.463v1.5H745.9v-1.5Zm-6.766,3H737.66a0.747,0.747,0,0,1-.846-0.8c-0.009-1-.01-1.9,0-2.9a0.752,0.752,0,0,1,.855-0.8h2.846a0.748,0.748,0,0,1,.848.8c0.009,1,.01,1.9,0,2.9a0.753,0.753,0,0,1-.856.8h-1.376Zm0.7-3h-1.471v1.5h1.471v-1.5Zm11.391,3h-1.375a0.788,0.788,0,0,1-.884-0.9q-0.014-1.35,0-2.7a0.78,0.78,0,0,1,.867-0.9h2.8a0.761,0.761,0,0,1,.884.8c0.009,1,.008,1.9,0,2.8a0.8,0.8,0,0,1-.915.9h-1.376Zm-0.717-3v1.5h1.457v-1.5H750.5Zm-11.46,9.1h-1.423a0.792,0.792,0,0,1-.8-0.8q-0.02-1.5,0-3a0.736,0.736,0,0,1,.8-0.8h2.941a0.74,0.74,0,0,1,.8.8q0.019,1.5,0,3a0.792,0.792,0,0,1-.8.8h-1.518Zm0.779-1.6v-1.4h-1.457v1.4h1.457Zm7.617-.7c0,0.5.01,1,0,1.4a0.781,0.781,0,0,1-.832.9H743.71a0.774,0.774,0,0,1-.823-0.9c-0.01-.9-0.01-1.9,0-2.8a0.777,0.777,0,0,1,.831-0.9h2.893a0.777,0.777,0,0,1,.824.9C747.447,16010.9,747.438,16011.4,747.438,16011.9Zm-3.006-.8v1.5h1.451v-1.5h-1.451Zm9.079,0.8c0,0.5.011,1,0,1.5a0.744,0.744,0,0,1-.8.8h-2.941a0.739,0.739,0,0,1-.8-0.8q-0.02-1.5,0-3a0.737,0.737,0,0,1,.8-0.8H752.7a0.744,0.744,0,0,1,.8.8C753.522,16010.9,753.511,16011.4,753.511,16011.9Zm-1.543.7v-1.4h-1.459v1.4h1.459Zm-12.91,7.6h-1.423a0.741,0.741,0,0,1-.821-0.8c-0.01-1-.011-1.9,0-2.9a0.747,0.747,0,0,1,.832-0.8h2.894a0.741,0.741,0,0,1,.821.8c0.011,1,.012,1.9,0,2.9a0.749,0.749,0,0,1-.833.8h-1.471Zm0.753-1.5v-1.5h-1.454v1.5h1.454Zm3.074-.7c0-.5-0.011-1,0-1.5a0.744,0.744,0,0,1,.806-0.8h2.941a0.737,0.737,0,0,1,.8.8c0.013,1,.013,1.9,0,2.9a0.741,0.741,0,0,1-.806.8h-2.941a0.74,0.74,0,0,1-.8-0.8C742.875,16018.9,742.885,16018.4,742.885,16018Zm1.538,0.7h1.459v-1.5h-1.459v1.5Zm9.089-.7c0,0.4.007,0.9,0,1.4a0.749,0.749,0,0,1-.843.8h-2.846a0.755,0.755,0,0,1-.861-0.8c-0.01-1-.009-1.9,0-2.9a0.744,0.744,0,0,1,.841-0.8h2.846a0.78,0.78,0,0,1,.863.9C753.517,16017,753.512,16017.5,753.512,16018Zm-1.553.7v-1.5H750.5v1.5h1.458ZM745.9,15999h-1.465v-1.5H745.9v1.5Zm1.551,0v-1.4h1.476v1.4h-1.476Zm-4.6,0h-1.463v-1.4h1.463v1.4Z" transform="translate(-711 -15977.8)"/>
</svg>
