<svg xmlns="http://www.w3.org/2000/svg" width="51.124" height="50.8" viewBox="0 0 51.124 50.8">
  <path fill="#e31e25" fill-rule="evenodd" d="M978.647,15982.9h-3.989a2.555,2.555,0,0,1-2.812-2.8c0-1.3,0-2.6,0-4H945.851c-0.985,0-1.216.3-1.216,1.3v45a0.979,0.979,0,0,0,1.212,1.2h31.567c1.009,0,1.233-.2,1.233-1.3,0-1.3,0-2.6,0-3.9a0.951,0.951,0,0,1,.83-1.1,0.914,0.914,0,0,1,.867,1.1c0,1.4.01,2.8,0,4.3a2.534,2.534,0,0,1-2.619,2.6H945.575a2.553,2.553,0,0,1-2.639-2.7c0-15.2,0-30.3,0-45.5a2.528,2.528,0,0,1,2.636-2.6q13.446-.15,26.89,0a1.243,1.243,0,0,1,.977.4c2.189,2.1,4.356,4.3,6.5,6.4a1.838,1.838,0,0,1,.392,1c0.023,5.9.017,11.8,0.017,17.6,0,0.1,0,.2,0,0.3a0.786,0.786,0,0,1-.828.8,0.818,0.818,0,0,1-.864-0.9c-0.016-.9-0.006-1.9-0.006-2.8v-14.4Zm-1.383-1.7c-1.239-1.2-2.47-2.4-3.711-3.7,0,1-.021,2,0.009,3a0.8,0.8,0,0,0,.915.7h2.787Zm13.149,22.4a5.629,5.629,0,0,0-.338.5c-4.644,4.6-9.29,9.2-13.948,13.9a2.889,2.889,0,0,1-.922.5c-1.828.6-3.664,1.1-5.51,1.6a1.148,1.148,0,0,1-.972-0.2,0.792,0.792,0,0,1-.2-1c0.536-1.8,1.043-3.6,1.59-5.5a1.828,1.828,0,0,1,.5-0.8c4.951-4.9,9.917-9.9,14.869-14.8a2.508,2.508,0,0,1,2.156-.8,0.376,0.376,0,0,0,.441-0.1,19.649,19.649,0,0,1,1.4-1.4,2.615,2.615,0,0,1,3.813,0,2.575,2.575,0,0,1-.056,3.7,4.322,4.322,0,0,1-.676.7c-0.964,1-.97,1-0.906,2.3a0.652,0.652,0,0,0,.206.3,3.43,3.43,0,0,1-.1,5q-1.964,1.95-3.948,3.9a0.864,0.864,0,0,1-1.428-.1,0.828,0.828,0,0,1,.255-1.1c1.333-1.4,2.663-2.7,3.983-4A1.607,1.607,0,0,0,990.413,16003.6Zm-9.165,6.8h0.088c2.832-2.8,5.661-5.7,8.5-8.5,0.284-.3.236-0.5-0.028-0.7-0.721-.7-1.428-1.5-2.142-2.2-0.488-.5-0.532-0.5-1.018,0q-4.061,4.05-8.117,8.1a2.06,2.06,0,0,1-.29.3C979.263,16008.5,980.248,16009.4,981.248,16010.4Zm-8.913,3c0.966,1,1.962,2,2.917,2.9,1.521-1.5,3.079-3.1,4.6-4.6-0.962-.9-1.956-1.9-2.911-2.9C975.417,16010.3,973.858,16011.9,972.335,16013.4Zm18.25-13.9q0.8-.75,1.516-1.5a0.911,0.911,0,0,0-.015-1.3,0.8,0.8,0,0,0-1.24-.1,17.749,17.749,0,0,0-1.583,1.6C989.7,15998.6,990.112,15999,990.585,15999.5Zm-19.2,15.6c-0.271,1-.548,2-0.85,3,1.063-.3,2.032-0.6,2.97-0.8C972.794,16016.5,972.1,16015.9,971.388,16015.1Zm-9.809-22H949.1a0.893,0.893,0,0,1-1.07-.8,0.81,0.81,0,0,1,.746-0.9h25.751a0.806,0.806,0,0,1,.721.8,0.83,0.83,0,0,1-.715.9H961.579Zm0.1,8.5h12.533c0.7,0,1.042.2,1.035,0.8a0.7,0.7,0,0,1-.724.8c-0.086.1-.176,0-0.265,0H949.036a0.85,0.85,0,0,1-.985-0.6,0.785,0.785,0,0,1,.833-1,15.057,15.057,0,0,1,2.124,0h10.675Zm3.3-3.4H955.8a0.875,0.875,0,0,1-.977-0.7,0.809,0.809,0,0,1,.761-1h18.951a0.777,0.777,0,0,1,.7.8,0.843,0.843,0,0,1-.695.9h-9.554Zm-6.753-11.9h9.185a1.383,1.383,0,0,1,.871.4,0.807,0.807,0,0,1-.573,1.3H949.081a0.9,0.9,0,0,1-1.031-.6,0.863,0.863,0,0,1,.946-1.1h9.238Zm2.5-3.4h-6.528a1.226,1.226,0,0,1-.85-0.3,0.917,0.917,0,0,1-.145-0.8,1.462,1.462,0,0,1,.655-0.6H967.4a0.964,0.964,0,0,1,1,.5,0.855,0.855,0,0,1-.918,1.2h-6.74Zm3.267,37.3a2.95,2.95,0,0,1-.541-0.4,2.713,2.713,0,0,0-3.645-1.1c-0.5.2-.978,0.5-1.463,0.7a5.839,5.839,0,0,1-4.282.7,4.051,4.051,0,0,1-2.5-2,0.814,0.814,0,0,1,.249-1.2,0.865,0.865,0,0,1,1.211.3,2.579,2.579,0,0,0,3.344,1.2,11.41,11.41,0,0,0,1.717-.8,5.953,5.953,0,0,1,4.328-.7,4.022,4.022,0,0,1,2.494,2A0.876,0.876,0,0,1,964,16020.2Zm-9.14-13.6h5.681a0.892,0.892,0,0,1,1.105.9c0.008,0.5-.339.8-1.076,0.8h-11.52c-0.67,0-1-.2-1.025-0.8a0.85,0.85,0,0,1,.943-0.9h5.892Zm-4.334-8.4h-1.642a0.785,0.785,0,0,1-.873-0.8,0.8,0.8,0,0,1,.825-0.9h3.495a0.778,0.778,0,0,1,.8.8,0.905,0.905,0,0,1-.806.9h-1.8ZM972.7,15988h-1.642a0.853,0.853,0,1,1,.022-1.7h3.232a0.807,0.807,0,0,1,.945.8,0.825,0.825,0,0,1-.967.9H972.7Zm-6.8,18.6h1.694a0.905,0.905,0,0,1,.857.8,0.77,0.77,0,0,1-.841.9h-3.44a0.752,0.752,0,0,1-.831-0.8,0.893,0.893,0,0,1,.867-0.9H965.9Z" transform="translate(-942.938 -15974.5)"/>
</svg>
